# File created by Blade
# Date/Time:  Tue Jan 27 18:09:18 2015
#---------------------------------------------------------
:version 1.10
:name HOM
:units
  mass 1.0
  length 1.000000
  angle deg
:documentation
     Acclaim Skeleton File
:root
   axis xyz
   order TX TY TZ RX RY RZ
   position 0.000000 0.000000 0.000000
   orientation 0 0 0
:bonedata
   begin
      id 1
      name Spine_dum
      direction 0.000000 1.000000 0.000000
      length 5.195262
      axis 0.0 0.0 0.0 xyz
   end
   begin
      id 2
      name LeftUpLeg_dum
      direction 1.000000 0.000000 0.000000
      length 3.351363
      axis 0.0 0.0 0.0 xyz
   end
   begin
      id 3
      name RightUpLeg_dum
      direction -1.000000 0.000000 0.000000
      length 3.351363
      axis 0.0 0.0 0.0 xyz
   end
   begin
      id 4
      name Spine
      direction 0.000000 1.000000 0.000000
      length 0.000000
      axis 0.0 0.0 0.0 xyz
      dof rx ry rz
   end
   begin
      id 5
      name Spine_dum1
      direction 0.000000 1.000000 0.000000
      length 15.653875
      axis 0.0 0.0 0.0 xyz
   end
   begin
      id 6
      name Spine_dum2
      direction 0.000000 1.000000 0.000000
      length 10.329768
      axis 0.0 0.0 0.0 xyz
   end
   begin
      id 7
      name Spine_dum3
      direction 0.000000 1.000000 0.000000
      length 10.329768
      axis 0.0 0.0 0.0 xyz
   end
   begin
      id 8
      name Head
      direction 0.000000 1.000000 0.000000
      length 4.527550
      axis 0.0 0.0 0.0 xyz
      dof rx ry rz
   end
   begin
      id 9
      name LeftShoulder
      direction 1.000000 0.000000 0.000000
      length 6.996006
      axis 0.0 0.0 -90.0 xyz
      dof rx ry rz
   end
   begin
      id 10
      name LeftArm
      direction 1.000000 0.000000 0.000000
      length 10.209302
      axis 0.0 0.0 -90.0 xyz
      dof rx ry rz
   end
   begin
      id 11
      name LeftForeArm
      direction 1.000000 0.000000 0.000000
      length 8.563163
      axis 0.0 0.0 -90.0 xyz
      dof ry rz rx
   end
   begin
      id 12
      name LeftHand
      direction 0.000000 0.000000 0.000000
      length 0.000000
      axis 0.0 0.0 -90.0 xyz
      dof rx ry rz
   end
   begin
      id 13
      name LeftHand_dum1
      direction 0.000000 0.000000 0.000000
      length 0.000000
      axis 0.0 0.0 -90.0 xyz
   end
   begin
      id 14
      name LeftHand_dum2
      direction 1.000000 0.000000 0.000000
      length 3.937000
      axis 0.0 0.0 -90.0 xyz
   end
   begin
      id 15
      name LeftHandThumb1
      direction 0.000000 0.000000 1.000000
      length 3.937000
      axis 0.0 0.0 -90.0 xyz
      dof rx rz ry
   end
   begin
      id 16
      name RightShoulder
      direction -1.000000 0.000000 0.000000
      length 6.996006
      axis 0.0 0.0 90.0 xyz
      dof rx ry rz
   end
   begin
      id 17
      name RightArm
      direction -1.000000 0.000000 0.000000
      length 10.209302
      axis 0.0 0.0 90.0 xyz
      dof rx ry rz
   end
   begin
      id 18
      name RightForeArm
      direction -1.000000 0.000000 0.000000
      length 8.563163
      axis 0.0 0.0 90.0 xyz
      dof ry rz rx
   end
   begin
      id 19
      name RightHand
      direction 0.000000 0.000000 0.000000
      length 0.000000
      axis 0.0 0.0 90.0 xyz
      dof rx ry rz
   end
   begin
      id 20
      name RightHand_dum1
      direction 0.000000 0.000000 0.000000
      length 0.000000
      axis 0.0 0.0 90.0 xyz
   end
   begin
      id 21
      name RightHand_dum2
      direction -1.000000 0.000000 0.000000
      length 3.937000
      axis 0.0 0.0 90.0 xyz
   end
   begin
      id 22
      name RightHandThumb1
      direction 0.000000 0.000000 1.000000
      length 3.937000
      axis 0.0 0.0 90.0 xyz
      dof rx rz ry
   end
   begin
      id 23
      name LeftUpLeg
      direction 0.000000 -1.000000 0.000000
      length 16.346831
      axis 0.0 0.0 0.0 xyz
      dof rx ry rz
   end
   begin
      id 24
      name LeftLeg
      direction 0.000000 -1.000000 0.000000
      length 13.959795
      axis 0.0 0.0 0.0 xyz
      dof rx ry rz
   end
   begin
      id 25
      name LeftFoot
      direction 0.000000 -0.258819 0.965926
      length 5.165550
      axis 15.0 0.0 0.0 xyz
      dof rx ry rz
   end
   begin
      id 26
      name LeftToeBase
      direction 0.000000 0.000000 1.000000
      length 2.952750
      axis 0.0 0.0 0.0 xyz
      dof rx ry rz
   end
   begin
      id 27
      name RightUpLeg
      direction 0.000000 -1.000000 0.000000
      length 16.346831
      axis 0.0 0.0 0.0 xyz
      dof rx ry rz
   end
   begin
      id 28
      name RightLeg
      direction 0.000000 -1.000000 0.000000
      length 13.959795
      axis 0.0 0.0 0.0 xyz
      dof rx ry rz
   end
   begin
      id 29
      name RightFoot
      direction 0.000000 -0.258819 0.965926
      length 5.165550
      axis 15.0 0.0 0.0 xyz
      dof rx ry rz
   end
   begin
      id 30
      name RightToeBase
      direction 0.000000 0.000000 1.000000
      length 2.952750
      axis 0.0 0.0 0.0 xyz
      dof rx ry rz
   end
:hierarchy
   begin
      root Spine_dum LeftUpLeg_dum RightUpLeg_dum
      Spine_dum Spine
      LeftUpLeg_dum LeftUpLeg
      RightUpLeg_dum RightUpLeg
      Spine Spine_dum1 Spine_dum2 Spine_dum3
      Spine_dum1 Head
      Spine_dum2 LeftShoulder
      Spine_dum3 RightShoulder
      LeftShoulder LeftArm
      LeftArm LeftForeArm
      LeftForeArm LeftHand
      LeftHand LeftHand_dum1 LeftHand_dum2
      LeftHand_dum1 LeftHandThumb1
      RightShoulder RightArm
      RightArm RightForeArm
      RightForeArm RightHand
      RightHand RightHand_dum1 RightHand_dum2
      RightHand_dum1 RightHandThumb1
      LeftUpLeg LeftLeg
      LeftLeg LeftFoot
      LeftFoot LeftToeBase
      RightUpLeg RightLeg
      RightLeg RightFoot
      RightFoot RightToeBase
   end

# File created by Blade
# Date/Time:  Tue Jan 27 18:09:10 2015
# Frame Rate: 120.000 fps
#------------------------------------------------------
:FULLY-SPECIFIED
:DEGREES
1284
root -1.555091 31.851557 -6.557196 6.471709 16.938962 4.376492
Spine -7.271257 0.172589 -3.678468
Head -3.094122 -15.417511 0.239953
LeftShoulder -8.333245 16.380195 5.813398
LeftArm 27.977079 42.075582 -67.957912
LeftForeArm -2.735613 -0.000000 14.086958
LeftHand -10.930418 -0.000000 -5.353729
LeftHandThumb1 -26.253704 0.000000 33.147579
RightShoulder 4.348562 29.714533 -32.718037
RightArm 49.601095 27.138503 101.044214
RightForeArm 29.509513 -0.000000 54.702682
RightHand -12.863016 -0.000000 -1.055876
RightHandThumb1 -24.326973 -0.000000 -32.862282
LeftUpLeg -3.209381 -7.080674 -0.790679
LeftLeg 1.534654 -0.000000 -0.000000
LeftFoot -15.400962 13.491903 -24.312752
LeftToeBase 8.554573 -0.000000 -0.000000
RightUpLeg 2.663954 -10.113151 -3.568571
RightLeg -3.519725 -0.000000 0.000000
RightFoot -16.883964 -17.757464 10.579823
RightToeBase 5.336868 -0.000000 -0.000000
1285
root -1.555611 31.852083 -6.558882 6.495781 16.930929 4.375658
Spine -7.252616 0.144400 -3.651461
Head -3.202620 -15.392663 0.215801
LeftShoulder -8.366494 16.368005 5.783080
LeftArm 27.965842 42.028726 -67.979658
LeftForeArm -2.648145 0.000000 14.064968
LeftHand -10.937874 0.000000 -5.397057
LeftHandThumb1 -26.253704 0.000000 33.147579
RightShoulder 4.418920 29.813238 -32.661522
RightArm 49.670701 27.408655 101.439373
RightForeArm 29.512309 -0.000000 56.460289
RightHand -12.639552 -0.000000 -0.847933
RightHandThumb1 -24.326973 -0.000000 -32.862282
LeftUpLeg -3.235966 -7.071117 -0.788147
LeftLeg 1.532973 -0.000000 -0.000000
LeftFoot -15.401189 13.499841 -24.297834
LeftToeBase 8.572109 -0.000000 -0.000000
RightUpLeg 2.633785 -10.092362 -3.563857
RightLeg -3.516392 -0.000000 0.000000
RightFoot -16.875551 -17.768837 10.571604
RightToeBase 5.314734 -0.000000 -0.000000
1286
root -1.555701 31.852641 -6.559558 6.522666 16.918255 4.372415
Spine -7.247322 0.135736 -3.617864
Head -3.284946 -15.387718 0.176319
LeftShoulder -8.365584 16.333662 5.766204
LeftArm 27.927436 42.045384 -67.989049
LeftForeArm -2.669930 -0.000000 14.066287
LeftHand -10.959246 -0.000000 -5.440294
LeftHandThumb1 -26.253704 0.000000 33.147579
RightShoulder 4.482613 29.852564 -32.638966
RightArm 49.772446 27.667744 101.849258
RightForeArm 29.504869 0.000000 58.266405
RightHand -12.324131 -0.000000 -0.617147
RightHandThumb1 -24.326973 -0.000000 -32.862282
LeftUpLeg -3.262655 -7.059357 -0.782975
LeftLeg 1.530172 -0.000000 -0.000000
LeftFoot -15.397173 13.495124 -24.314536
LeftToeBase 8.588071 -0.000000 -0.000000
RightUpLeg 2.602437 -10.102323 -3.556349
RightLeg -3.518449 -0.000000 0.000000
RightFoot -16.867491 -17.751341 10.585752
RightToeBase 5.291641 -0.000000 -0.000000
1287
root -1.555351 31.852798 -6.560818 6.547601 16.910646 4.369910
Spine -7.238232 0.105858 -3.577260
Head -3.360010 -15.369728 0.126574
LeftShoulder -8.394870 16.358896 5.728570
LeftArm 27.988802 42.060885 -67.925177
LeftForeArm -2.745248 -0.000000 14.053487
LeftHand -10.858335 -0.000000 -5.162602
LeftHandThumb1 -26.253704 0.000000 33.147579
RightShoulder 4.566971 29.861607 -32.618900
RightArm 49.919953 27.915254 102.266811
RightForeArm 29.597296 -0.000000 60.090855
RightHand -12.230241 -0.000000 -0.590104
RightHandThumb1 -24.326973 -0.000000 -32.862282
LeftUpLeg -3.290467 -7.055379 -0.780499
LeftLeg 1.531242 -0.000000 -0.000000
LeftFoot -15.403977 13.502437 -24.316728
LeftToeBase 8.588105 -0.000000 -0.000000
RightUpLeg 2.572207 -10.112437 -3.551333
RightLeg -3.517170 -0.000000 0.000000
RightFoot -16.856938 -17.734354 10.572268
RightToeBase 5.311937 -0.000000 -0.000000
